# xmcd CD database file
#
# Track frame offsets:
#	150
#	14631
#	30346
#	46800
#	61917
#	76550
#	91778
#	107743
#	122170
#	136062
#	150313
#	166664
#	181723
#	196760
#	211125
#	223183
#	235785
#	249736
#	262648
#	276498
#	289871
#
# Disc length: 4035 seconds
#
# Revision: 1
# Processed by: cddbd v1.5.2PL0 Copyright (c) Steve Scherf et al.
# Submitted via: CDex 1.70beta2
#
DISCID=0a0fc115
DTITLE=Henry 'Red' Allen - Giants Of Jazz Disc 1
DYEAR=1900
DGENRE=Jazz
TTITLE0=It Should Be You-Henry Allen Jr and His New York Orchestra 
TTITLE1=Biff'1y Blues-Henry Allen Jr and His New York Orchestra
TTITLE2=Feeling Drowsy-Henry Allen Jr and His New York Orchestra
TTITLE3=Swing Out-Henry Allen Jr and His New York Orchestra
TTITLE4=The New Call of the Freaks-Luis Russell and His Orchestra
TTITLE5=Jersey Lightning-Luis Russell and His Orchestra
TTITLE6=Saratoga Shout-Luis Russell and His Orchestra 
TTITLE7=Give Me Your Telephone Number-J C Higginbotham and His Six Hicks
TTITLE8=Sugar Hill Function-Henry Allen Jr and His Orchestra
TTITLE9=Louisiana Swing-Luis Russell and His Orchestra
TTITLE10=Roamin'-Henry Allen and His Orchestra
TTITLE11=Patrol Wagon Blues-Henry Allen and His Orchestra
TTITLE12=Panama-Luis Russell and His Orchestra 
TTITLE13=Stingaree Blues-King Oliver and His Orchestra
TTITLE14=A Shakin' the African-Don Redman and His Orchestra
TTITLE15=Bugle Call Rag-Billy Banks and His Orchestra
TTITLE16=Oh Peter-Billy Banks and His Orchestra
TTITLE17=Margie-Billy Banks and His Orchestra
TTITLE18=Sweet Sorrow Blues-Spike Hughes and His Negro Orchestra
TTITLE19=King Porter Stomp-Fletcher Henderson and His Orchestra
TTITLE20=Queer Notions-Fletcher Henderson and His Orchestra
EXTD=
EXTT0=
EXTT1=
EXTT2=
EXTT3=
EXTT4=
EXTT5=
EXTT6=
EXTT7=
EXTT8=
EXTT9=
EXTT10=
EXTT11=
EXTT12=
EXTT13=
EXTT14=
EXTT15=
EXTT16=
EXTT17=
EXTT18=
EXTT19=
EXTT20=
PLAYORDER=
